<?xml version="1.0" encoding="UTF-8"?>
<svg version="1.1" xmlns="http://www.w3.org/2000/svg" width="589" height="197">
<path d="M0 0 C194.37 0 388.74 0 589 0 C589 65.01 589 130.02 589 197 C394.63 197 200.26 197 0 197 C0 131.99 0 66.98 0 0 Z " fill="#E8EBEE" transform="translate(0,0)"/>
<path d="M0 0 C8.85614755 6.09610157 15.2271944 14.56120245 18 25 C18.29680308 27.94276338 18.33407526 30.85638179 18.3125 33.8125 C18.30686035 34.61421631 18.3012207 35.41593262 18.29541016 36.24194336 C18.07112565 47.15083078 14.42985548 55.12559495 6.99609375 63.16796875 C-2.10580373 71.84652217 -10.69565253 74.70548388 -23.07275391 74.52612305 C-32.59459587 74.12043291 -39.67351524 71.0523135 -47 65 C-47 64.34 -47 63.68 -47 63 C-47.66 63 -48.32 63 -49 63 C-48.99333817 63.54679413 -48.98667633 64.09358826 -48.97981262 64.6569519 C-48.91358005 70.33422989 -48.86825005 76.01139864 -48.83520508 81.68896484 C-48.82009355 83.80945288 -48.7996036 85.92990954 -48.77368164 88.05029297 C-48.73740214 91.09350311 -48.72029758 94.13630103 -48.70703125 97.1796875 C-48.69154739 98.13181122 -48.67606354 99.08393494 -48.66011047 100.06491089 C-48.65977058 101.38605392 -48.65977058 101.38605392 -48.65942383 102.73388672 C-48.65276199 103.51110077 -48.64610016 104.28831482 -48.63923645 105.08908081 C-48.81781441 106.03498581 -48.81781441 106.03498581 -49 107 C-52.45245824 109.30163882 -53.94738713 109.34490322 -58 109 C-60.4724115 106.5275885 -60.25028945 105.09737752 -60.29327393 101.72187805 C-60.29191437 100.62011482 -60.29191437 100.62011482 -60.29052734 99.49609375 C-60.29724457 98.72182541 -60.30396179 97.94755707 -60.31088257 97.14982605 C-60.32994336 94.57898603 -60.33379203 92.00840639 -60.3359375 89.4375 C-60.34236426 87.64827365 -60.34909253 85.85904835 -60.35610962 84.06982422 C-60.36810568 80.31035938 -60.3717885 76.55098654 -60.37060547 72.79150391 C-60.37040316 67.99440782 -60.39760319 63.19791004 -60.43214989 58.4009552 C-60.45449867 54.69982244 -60.45844043 50.99883124 -60.45738602 47.29763794 C-60.45973391 45.5307511 -60.46851134 43.76385986 -60.48405075 41.99703979 C-60.62518199 24.27810079 -60.62518199 24.27810079 -56 16 C-55.20529297 14.55560547 -55.20529297 14.55560547 -54.39453125 13.08203125 C-41.38543516 -5.58040042 -20.23000979 -10.5848951 0 0 Z " fill="#296393" transform="translate(354,63)"/>
<path d="M0 0 C11.547845 6.18644542 18.9880257 15.94247094 22.8125 28.4375 C25.37385581 40.67782534 23.4477791 53.8457067 16.93359375 64.53515625 C10.35682957 74.12253728 1.57681993 81.06631545 -10.0625 83.3125 C-21.93166861 84.47046767 -31.55553861 82.02269196 -41.04296875 74.6484375 C-49.5083818 66.84948075 -55.31592765 55.71131507 -55.80078125 44.1015625 C-55.81521989 42.48443474 -55.81895838 40.86717932 -55.8125 39.25 C-55.82861328 38.45078125 -55.84472656 37.6515625 -55.86132812 36.828125 C-55.86942844 26.81614022 -52.35506826 19.55718759 -46.5 11.625 C-45.778125 10.59375 -45.05625 9.5625 -44.3125 8.5 C-33.21320752 -4.44314888 -14.88519061 -7.39822018 0 0 Z " fill="#DAE1E7" transform="translate(191.5,57.375)"/>
<path d="M0 0 C0.66 0.66 1.32 1.32 2 2 C2 1.34 2 0.68 2 0 C10.81559176 -0.65648024 19.71774897 4.81896834 26.4375 10.25 C30.90486953 14.5160503 34.02886992 19.62366938 37 25 C37.36351562 25.63421875 37.72703125 26.2684375 38.1015625 26.921875 C42.83396057 36.91740737 40.40617565 51.0022437 37 61 C32.30873617 72.61646281 23.11999599 80.4924209 11.8125 85.5625 C7.09508468 87.25535239 3.82746913 87.3792769 -1 86 C-3.67825921 82.49779153 -3.26830701 78.41167035 -3.22705078 74.20214844 C-3.22734283 73.42127869 -3.22763489 72.64040894 -3.22793579 71.83587646 C-3.2265448 69.26026212 -3.21099452 66.68493868 -3.1953125 64.109375 C-3.19158155 62.32147378 -3.18873496 60.5335705 -3.18673706 58.7456665 C-3.17910707 54.04384703 -3.159464 49.34215144 -3.1373291 44.64038086 C-3.11685704 39.84100012 -3.10773243 35.04159933 -3.09765625 30.2421875 C-3.07621753 20.82807062 -3.0420892 11.41404562 -3 2 C-3.96765746 3.87742574 -4.9285745 5.75832641 -5.88671875 7.640625 C-6.42256592 8.68766602 -6.95841309 9.73470703 -7.51049805 10.81347656 C-16.11118226 29.21310455 -15.33694716 54.01391222 -9 73 C-7.82120686 75.83390095 -6.56869759 78.48776615 -5.05078125 81.15234375 C-4 83 -4 83 -3 86 C-11.88155783 86.82236647 -18.33686928 83.37405561 -25.1875 77.875 C-34.31109064 69.35964874 -39.97834829 57.79566675 -40.47094727 45.36962891 C-40.6355492 31.94419743 -36.96864075 22.1881289 -28 12 C-20.35370155 4.66152355 -11.12901776 -2.02345777 0 0 Z " fill="#DDE3E9" transform="translate(422,54)"/>
<path d="M0 0 C39.85542169 0 39.85542169 0 52 12 C59.49654452 20.97612568 61.59934517 29.6912077 61.35546875 41.26953125 C60.27936788 52.56267771 54.59933183 61.78330584 46 69 C31.02979543 78.91058839 20.32147818 76 0 76 C0 50.92 0 25.84 0 0 Z " fill="#E7EAEE" transform="translate(53,50)"/>
<path d="M0 0 C0.87163284 -0.01140015 1.74326569 -0.02280029 2.64131165 -0.0345459 C4.49658344 -0.05347693 6.35192296 -0.06652618 8.20727539 -0.07421875 C10.9955799 -0.09337084 13.78076466 -0.15525465 16.56835938 -0.21875 C31.28869679 -0.39243134 44.1216087 2.10138349 55.36328125 12.40625 C56.1109375 13.05207031 56.85859375 13.69789062 57.62890625 14.36328125 C63.66624025 19.91083153 67.25365539 25.85138849 70.36328125 33.40625 C70.92402344 34.74429688 70.92402344 34.74429688 71.49609375 36.109375 C74.72956691 48.40239909 73.73130043 63.35444845 67.36328125 74.40625 C65.25644524 77.65408034 62.95624508 80.5364774 60.36328125 83.40625 C59.86441406 84.01984375 59.36554688 84.6334375 58.8515625 85.265625 C52.18021693 92.86121239 40.2107631 98.73711922 30.1734314 99.5929718 C27.70715824 99.66903329 25.24866411 99.68356622 22.78125 99.671875 C21.88586014 99.67378845 20.99047028 99.6757019 20.06794739 99.67767334 C18.18795488 99.67902741 16.30795277 99.67538565 14.42797852 99.66699219 C11.5422698 99.65621822 8.65717471 99.66694606 5.77148438 99.6796875 C3.94140487 99.678367 2.11132575 99.67580689 0.28125 99.671875 C-0.583293 99.67592346 -1.447836 99.67997192 -2.33857727 99.68414307 C-8.40675888 99.63620987 -8.40675888 99.63620987 -10.63671875 97.40625 C-10.83561691 94.4038963 -10.90935723 91.49374902 -10.89550781 88.49023438 C-10.89901245 87.5665657 -10.90251709 86.64289703 -10.90612793 85.6912384 C-10.91495551 82.6274166 -10.90909246 79.5638243 -10.90234375 76.5 C-10.9036901 74.37772578 -10.90563039 72.25545187 -10.90814209 70.13317871 C-10.91109475 65.68104115 -10.90679115 61.22898373 -10.89746094 56.77685547 C-10.88606636 51.05993013 -10.89262507 45.34319255 -10.90460587 39.62627411 C-10.91182063 35.24264095 -10.9095383 30.85905257 -10.90435028 26.47541809 C-10.90301272 24.36700926 -10.90466519 22.2585964 -10.90930939 20.15019226 C-10.91436831 17.20743994 -10.90667329 14.26499496 -10.89550781 11.32226562 C-10.89955627 10.44427811 -10.90360474 9.56629059 -10.90777588 8.66169739 C-10.84619825 -0.06456725 -7.83145472 0.07929683 0 0 Z M0.36328125 12.40625 C0.36328125 37.48625 0.36328125 62.56625 0.36328125 88.40625 C29.08576654 89.86106312 29.08576654 89.86106312 51.23828125 76.73046875 C54.18829576 73.50389038 56.47343069 70.34727982 58.36328125 66.40625 C58.83894531 65.42978516 58.83894531 65.42978516 59.32421875 64.43359375 C62.95942103 55.51234045 62.85235526 44.17863561 59.27734375 35.2578125 C57.87613105 32.41945857 56.27120874 29.93144815 54.36328125 27.40625 C53.66203125 26.41625 52.96078125 25.42625 52.23828125 24.40625 C46.84430026 18.0828446 38.92273506 15.24104518 31.36328125 12.40625 C21.13328125 12.40625 10.90328125 12.40625 0.36328125 12.40625 Z " fill="#286293" transform="translate(52.63671875,37.59375)"/>
<path d="M0 0 C5.12719397 4.23924418 8.5962025 8.60937406 10.41015625 15.109375 C10.49265625 16.2025 10.57515625 17.295625 10.66015625 18.421875 C10.73492187 19.31003906 10.8096875 20.19820312 10.88671875 21.11328125 C11.30224425 29.67529353 9.63399978 36.00743475 3.828125 42.45703125 C1.85917996 44.28616954 -0.14673453 45.87065141 -2.33984375 47.421875 C-2.93410156 47.85628906 -3.52835937 48.29070312 -4.140625 48.73828125 C-10.32715329 52.54028044 -17.32453341 52.30668892 -24.33984375 51.421875 C-32.22153268 49.16996388 -37.77023133 44.10643993 -42.33984375 37.421875 C-46.27346559 29.97845589 -46.04000441 21.93402144 -44.77734375 13.796875 C-41.05120871 5.04855795 -34.98224127 -0.68765666 -26.33984375 -4.578125 C-16.84464697 -6.92315087 -8.16662699 -5.50804225 0 0 Z " fill="#E5E9EC" transform="translate(350.33984375,74.578125)"/>
<path d="M0 0 C1.18467412 3.55402236 0.64611016 5.3429826 0 9 C-0.08827224 11.22295007 -0.12785109 13.4481501 -0.12939453 15.67285156 C-0.13412277 17.63584198 -0.13412277 17.63584198 -0.13894653 19.63848877 C-0.13715572 21.05586786 -0.13510451 22.47324663 -0.1328125 23.890625 C-0.13348716 25.36025 -0.13445853 26.82987489 -0.13571167 28.29949951 C-0.13718288 31.37594671 -0.13505388 34.45236479 -0.13037109 37.52880859 C-0.12469431 41.44670069 -0.12794344 45.36452395 -0.13394356 49.28241348 C-0.137582 52.31783554 -0.13639526 55.35324167 -0.13381577 58.38866425 C-0.1331545 59.83176431 -0.13394652 61.27486587 -0.13629532 62.71796417 C-0.14621536 70.52973412 -0.00942206 78.24205546 1 86 C-8.3439044 86.93439044 -15.19777066 83.72282917 -22.5546875 78.01953125 C-31.00697992 70.20756402 -36.81584021 59.08840879 -37.30078125 47.4765625 C-37.31521989 45.85943474 -37.31895838 44.24217932 -37.3125 42.625 C-37.32861328 41.82578125 -37.34472656 41.0265625 -37.36132812 40.203125 C-37.36942844 30.19114022 -33.85506826 22.93218759 -28 15 C-27.278125 13.96875 -26.55625 12.9375 -25.8125 11.875 C-19.40839236 4.4070178 -9.70669108 -0.38065455 0 0 Z " fill="#DCE2E8" transform="translate(173,54)"/>
<path d="M0 0 C4.62207085 6.93310627 3.14613012 17.48620621 3.1328125 25.546875 C3.13376923 26.83507141 3.13472595 28.12326782 3.13571167 29.45050049 C3.13717779 32.16688244 3.13507068 34.8832313 3.13037109 37.59960938 C3.12469739 41.04293863 3.12794478 44.4861895 3.13394356 47.92951584 C3.13847643 51.26030809 3.13527891 54.59108054 3.1328125 57.921875 C3.13483673 59.13897156 3.13686096 60.35606812 3.13894653 61.61004639 C3.11784826 69.44930092 2.71154 77.19324486 2 85 C0.68 85 -0.64 85 -2 85 C-3.2063665 81.38090049 -3.13189056 78.08176757 -3.11352539 74.31567383 C-3.11367142 73.5349501 -3.11381744 72.75422638 -3.1139679 71.94984436 C-3.11327114 69.36887841 -3.10548982 66.7879846 -3.09765625 64.20703125 C-3.09579123 62.41769958 -3.09436772 60.6283674 -3.09336853 58.83903503 C-3.08954999 54.12902416 -3.07972533 49.41904411 -3.06866455 44.70904541 C-3.05843621 39.90303972 -3.05386786 35.09702906 -3.04882812 30.29101562 C-3.03810249 20.86066354 -3.02103399 11.43033433 -3 2 C-3.96765746 3.87742574 -4.9285745 5.75832641 -5.88671875 7.640625 C-6.42256592 8.68766602 -6.95841309 9.73470703 -7.51049805 10.81347656 C-16.11118226 29.21310455 -15.33694716 54.01391222 -9 73 C-7.82120686 75.83390095 -6.56869759 78.48776615 -5.05078125 81.15234375 C-4 83 -4 83 -3 86 C-11.88155783 86.82236647 -18.33686928 83.37405561 -25.1875 77.875 C-34.31109064 69.35964874 -39.97834829 57.79566675 -40.47094727 45.36962891 C-40.6355492 31.94419743 -36.96864075 22.1881289 -28 12 C-20.66995198 4.96504248 -10.82100156 -2.53938937 0 0 Z " fill="#DFE4EA" transform="translate(422,54)"/>
<path d="M0 0 C9.99043689 6.44215945 16.09292581 14.49913793 19 26 C19.41069789 29.6060064 19.44483447 33.17392457 19.43359375 36.80078125 C19.4388356 37.79957809 19.44407745 38.79837494 19.44947815 39.82743835 C19.45586177 41.92246577 19.45460921 44.0175292 19.44604492 46.11254883 C19.43747699 49.32111569 19.4664407 52.52793404 19.49804688 55.73632812 C19.49965767 57.7786453 19.49908369 59.82096563 19.49609375 61.86328125 C19.50732773 62.82059647 19.51856171 63.77791168 19.53013611 64.76423645 C19.46074851 71.35911284 19.46074851 71.35911284 17.12915039 74.60229492 C14.45959415 76.35475559 13.12963522 76.64197646 10 76 C7.29616261 73.12179823 6.62800741 71.17459554 6.64697266 67.26660156 C6.64331696 66.33172913 6.63966125 65.39685669 6.63589478 64.43365479 C6.64519012 63.42945496 6.65448547 62.42525513 6.6640625 61.390625 C6.65154625 59.25260115 6.63850896 57.1145803 6.625 54.9765625 C6.62107615 51.61480015 6.62498545 48.25333535 6.63964844 44.89160156 C6.64825089 41.64082927 6.62647697 38.39128902 6.6015625 35.140625 C6.61490631 34.14452209 6.62825012 33.14841919 6.64199829 32.12213135 C6.55453809 23.80218164 4.01572575 19.01572575 -1.8125 13.1875 C-8.18314971 8.81548549 -14.261161 6.99706815 -22 8 C-29.40470641 9.86809778 -35.68257826 13.5983057 -40 20 C-43.15535481 25.96723004 -43.42726979 30.95703177 -43.40625 37.640625 C-43.41708618 38.64462341 -43.42792236 39.64862183 -43.43908691 40.68304443 C-43.48481842 44.95694489 -43.49648334 49.23078125 -43.51123047 53.50488281 C-43.52687923 56.63368574 -43.5598532 59.76197535 -43.59375 62.890625 C-43.59072876 63.85937561 -43.58770752 64.82812622 -43.58459473 65.82623291 C-43.59976135 67.17343414 -43.59976135 67.17343414 -43.61523438 68.54785156 C-43.61831604 69.73196625 -43.61831604 69.73196625 -43.62145996 70.94000244 C-44.09755838 73.53090825 -44.9293454 74.41537857 -47 76 C-49.5 76.4375 -49.5 76.4375 -52 76 C-54.04613787 74.21200254 -54.90045243 72.70945339 -55.2789917 70.01168823 C-55.39855632 67.46002942 -55.41553486 64.92553329 -55.3984375 62.37109375 C-55.40130768 61.42621597 -55.40417786 60.4813382 -55.40713501 59.50782776 C-55.40917581 57.50643312 -55.40364485 55.50501855 -55.39111328 53.50366211 C-55.37518486 50.47267694 -55.3908965 47.44305079 -55.41015625 44.41210938 C-55.4272125 30.06216857 -54.89033464 18.2320467 -45 7 C-42.18555954 4.31909139 -39.26818937 2.09899045 -36 0 C-35.33613281 -0.43441406 -34.67226563 -0.86882813 -33.98828125 -1.31640625 C-23.98549221 -6.78459759 -9.71976711 -5.33310251 0 0 Z " fill="#2C6695" transform="translate(527,62)"/>
<path d="M0 0 C1.69921875 1.51953125 1.69921875 1.51953125 2.13671875 4.51953125 C1.69921875 7.51953125 1.69921875 7.51953125 0.57421875 9.39453125 C-2.25301162 11.09086947 -4.05125089 10.96554522 -7.30078125 10.51953125 C-9.34369307 9.25292592 -11.34768237 7.92066741 -13.30078125 6.51953125 C-19.5579911 4.51467013 -26.29872964 4.8377626 -32.3203125 7.421875 C-39.67831551 11.49997923 -43.6680904 16.59368492 -46.30078125 24.51953125 C-46.80989519 28.05995686 -46.81322839 31.52953478 -46.76953125 35.1015625 C-46.78010559 36.5664637 -46.78010559 36.5664637 -46.79089355 38.06095886 C-46.81278518 41.15158883 -46.80995027 44.24134713 -46.80078125 47.33203125 C-46.78874999 51.42234156 -46.80236097 55.5113657 -46.83203125 59.6015625 C-46.82071167 60.53700394 -46.80939209 61.47244537 -46.79772949 62.43623352 C-46.84799686 68.87175784 -46.84799686 68.87175784 -49.13476562 72.14331055 C-51.30078125 73.51953125 -51.30078125 73.51953125 -54.42578125 73.45703125 C-57.30078125 72.51953125 -57.30078125 72.51953125 -59.30078125 69.51953125 C-59.56147766 67.5556488 -59.56147766 67.5556488 -59.57543945 65.29858398 C-59.58497147 64.45017441 -59.59450348 63.60176483 -59.60432434 62.72764587 C-59.60341293 61.81205399 -59.60250153 60.8964621 -59.6015625 59.953125 C-59.60584763 59.0044606 -59.61013275 58.0557962 -59.61454773 57.0783844 C-59.6202947 55.06683143 -59.6207886 53.05525768 -59.61645508 51.04370117 C-59.61331819 47.9929557 -59.63666898 44.94320202 -59.66210938 41.89257812 C-59.6643849 39.93359496 -59.66508469 37.97460922 -59.6640625 36.015625 C-59.67327225 35.11420273 -59.68248199 34.21278046 -59.69197083 33.28404236 C-59.60893701 21.68004965 -55.93941588 12.55744743 -48.0390625 4.09765625 C-34.12758407 -9.26784579 -16.18509314 -10.41451664 0 0 Z " fill="#2D6696" transform="translate(284.30078125,64.48046875)"/>
<path d="M0 0 C9.57401848 0.1622715 17.48349291 4.02813053 24.65625 10.3359375 C34.38508342 20.61607148 38.50920672 31.62783693 38.25 45.625 C37.31624785 58.23065404 32.37855528 69.41654382 23 78 C16.95434034 82.26696793 10.61011412 86.43486366 3 86 C3.86625 85.113125 4.7325 84.22625 5.625 83.3125 C16.05508215 71.03747407 20.4458012 52.85395856 19.23193359 37.046875 C17.68047212 23.35481926 12.88630345 11.76179081 3 2 C2.34 1.67 1.68 1.34 1 1 C1.66 2.65 2.32 4.3 3 6 C2.34 6 1.68 6 1 6 C0.67 6.99 0.34 7.98 0 9 C0 6.03 0 3.06 0 0 Z " fill="#DFE4EA" transform="translate(177,54)"/>
<path d="M0 0 C0.804375 0.12375 1.60875 0.2475 2.4375 0.375 C7.05957085 7.30810627 5.58363012 17.86120621 5.5703125 25.921875 C5.57174759 27.85416962 5.57174759 27.85416962 5.57321167 29.82550049 C5.57467779 32.54188244 5.57257068 35.2582313 5.56787109 37.97460938 C5.56219739 41.41793863 5.56544478 44.8611895 5.57144356 48.30451584 C5.57597643 51.63530809 5.57277891 54.96608054 5.5703125 58.296875 C5.57233673 59.51397156 5.57436096 60.73106812 5.57644653 61.98504639 C5.55534826 69.82430092 5.14904 77.56824486 4.4375 85.375 C3.1175 85.375 1.7975 85.375 0.4375 85.375 C-0.7688665 81.75590049 -0.69439056 78.45676757 -0.67602539 74.69067383 C-0.67617142 73.9099501 -0.67631744 73.12922638 -0.6764679 72.32484436 C-0.67577114 69.74387841 -0.66798982 67.1629846 -0.66015625 64.58203125 C-0.65829123 62.79269958 -0.65686772 61.0033674 -0.65586853 59.21403503 C-0.65204999 54.50402416 -0.64222533 49.79404411 -0.63116455 45.08404541 C-0.62093621 40.27803972 -0.61636786 35.47202906 -0.61132812 30.66601562 C-0.60060249 21.23566354 -0.58353399 11.80533433 -0.5625 2.375 C-1.53015746 4.25242574 -2.4910745 6.13332641 -3.44921875 8.015625 C-3.98506592 9.06266602 -4.52091309 10.10970703 -5.07299805 11.18847656 C-13.67368226 29.58810455 -12.89944716 54.38891222 -6.5625 73.375 C-5.38370686 76.20890095 -4.13119759 78.86276615 -2.61328125 81.52734375 C-1.5625 83.375 -1.5625 83.375 -0.5625 86.375 C-8.1670225 83.03034131 -12.4080599 75.82568446 -15.49609375 68.40625 C-21.14989902 52.3353603 -22.18467325 33.59711577 -14.9453125 17.859375 C-12.20985486 12.62326294 -9.35122317 7.91671208 -5.5625 3.375 C-4.8509375 2.4778125 -4.8509375 2.4778125 -4.125 1.5625 C-2.5625 0.375 -2.5625 0.375 0 0 Z " fill="#326793" transform="translate(419.5625,53.625)"/>
<path d="M0 0 C1.21890592 3.78535661 1.12669428 7.52823681 1.09765625 11.45898438 C1.09619598 12.20416824 1.09473572 12.94935211 1.0932312 13.71711731 C1.08943199 15.33166671 1.08332258 16.94621197 1.07516479 18.56074524 C1.06238801 21.11614821 1.05588222 23.6714992 1.05102539 26.22692871 C1.03766199 32.57272014 1.01344391 38.91846199 0.98962402 45.26422119 C0.96990055 50.62888815 0.95425737 55.99353681 0.94406128 61.35823059 C0.93757952 63.87536915 0.92507179 66.39243225 0.91235352 68.9095459 C0.90872074 70.45336847 0.90536904 71.99719174 0.90234375 73.54101562 C0.89717743 74.24035721 0.89201111 74.93969879 0.88668823 75.66023254 C0.88633302 78.92336094 0.99516954 81.87946249 2 85 C1.01 85 0.02 85 -1 85 C-11.95239304 63.44851692 -14.47784792 39.40218578 -8 16 C-5.99169605 10.16356974 -3.88796153 4.83734749 0 0 Z " fill="#DEE3E8" transform="translate(419,55)"/>
<path d="M0 0 C-0.4846875 0.32871094 -0.969375 0.65742187 -1.46875 0.99609375 C-13.06983102 9.22839932 -19.63300791 19.17447495 -23 33 C-24.1374779 48.62359346 -21.41898879 61.86447283 -11 74 C-7.92370031 77.25969448 -4.87985545 79.76908312 -1 82 C-3.45523388 82.89230848 -4.62659796 83.13873163 -7.11328125 82.21484375 C-18.95847448 75.33495355 -26.93935881 66.49249744 -31.33984375 53.21484375 C-33.8616011 40.93433309 -32.78429043 28.98116653 -26.3046875 18.171875 C-21.41013154 10.91921313 -10.08968849 -3.3632295 0 0 Z " fill="#2D6493" transform="translate(414,56)"/>
<path d="M0 0 C10.1813676 1.32670822 17.54918284 6.59616417 24.05859375 14.3515625 C31.72266959 24.80678065 33.94849761 35.19528231 33 48 C31.21867648 59.35593744 26.54405277 69.18029853 18 77 C13.34865198 80.2828763 8.43663317 83.23532235 3 85 C2.01 84.67 1.02 84.34 0 84 C0.556875 83.67128906 1.11375 83.34257812 1.6875 83.00390625 C13.15776374 75.85436686 20.17181691 66.40002886 23.3125 53.1875 C25.65978973 38.80750178 23.48614322 26.54693399 15.6328125 14.25390625 C11.30914402 8.28558875 6.53796004 4.3356939 0 1 C0 0.67 0 0.34 0 0 Z " fill="#336795" transform="translate(182,55)"/>
<path d="M0 0 C9.02887277 0.69452867 17.00765733 6.49507405 23 13 C25.62685634 16.52177733 27.87599028 20.15655385 30 24 C30.36351562 24.63421875 30.72703125 25.2684375 31.1015625 25.921875 C35.83396057 35.91740737 33.40617565 50.0022437 30 60 C25.705129 70.63491867 17.61283742 78.30009374 7.34765625 83.2890625 C5 84 5 84 2 83 C2.56847656 82.59910156 3.13695312 82.19820313 3.72265625 81.78515625 C14.59712928 73.77907511 19.76705834 64.69882497 24 52 C24.89936177 41.74727586 25.30990104 31.09094512 20 22 C19.32904297 20.72962891 19.32904297 20.72962891 18.64453125 19.43359375 C13.99095271 11.06214281 8.52717033 5.35059711 0 1 C0 0.67 0 0.34 0 0 Z " fill="#2F6796" transform="translate(429,55)"/>
<path d="M0 0 C-0.74443359 0.51046875 -0.74443359 0.51046875 -1.50390625 1.03125 C-12.98373171 9.22178961 -20.62866834 19.93874432 -23 34 C-23.54620947 41.22874096 -23.44563826 48.13934108 -21 55 C-20.69320312 55.92425781 -20.38640625 56.84851563 -20.0703125 57.80078125 C-15.75309388 69.51681937 -7.82967197 76.7187615 2 84 C-7.34338999 83.59376565 -14.89904356 77.96376175 -21.1796875 71.33984375 C-28.25270219 62.24813603 -31.35786981 51.98560131 -31.3125 40.625 C-31.32861328 39.82578125 -31.34472656 39.0265625 -31.36132812 38.203125 C-31.36942844 28.19114022 -27.85506826 20.93218759 -22 13 C-21.278125 11.96875 -20.55625 10.9375 -19.8125 9.875 C-15.42292317 4.72013511 -6.8030718 -2.04092154 0 0 Z " fill="#2F6593" transform="translate(167,56)"/>
<path d="M0 0 C6.53591587 2.83796347 11.21391914 9.17106901 14.08984375 15.5703125 C20.91601918 33.79297824 20.74368149 50.70634263 14 69 C11.33036143 74.80751218 7.99008515 79.95398502 3 84 C2.01 84 1.02 84 0 84 C0.31453125 83.44054687 0.6290625 82.88109375 0.953125 82.3046875 C10.46173668 64.4903608 13.96522113 39.68281275 8.4621582 19.99072266 C6.57258054 14.20056246 4.15596706 8.76243366 0.91796875 3.6015625 C0 2 0 2 0 0 Z " fill="#326793" transform="translate(425,55)"/>
<path d="M0 0 C7.64363614 3.36186185 11.83280874 10.58117909 14.93359375 18.03125 C21.51206957 36.34495558 20.17050626 53.72346675 12.54296875 71.37109375 C9.74215311 76.81753472 6.59020118 80.95625134 2 85 C1.34 84.67 0.68 84.34 0 84 C0.31453125 83.35675781 0.6290625 82.71351563 0.953125 82.05078125 C10.49045688 61.91322206 14.11531813 37.81643982 7.2890625 16.18359375 C5.57165452 11.94211648 3.53639273 7.98971964 1.171875 4.07421875 C0 2 0 2 0 0 Z " fill="#356997" transform="translate(178,55)"/>
<path d="M0 0 C0.33 0.99 0.66 1.98 1 3 C0.07452694 4.3710712 -0.85712844 5.73830154 -1.81640625 7.0859375 C-12.08667449 23.69462211 -10.81665667 47.71549658 -6.52246094 66.04394531 C-5.14308002 71.20824434 -3.11911067 76.10436478 -1 81 C-0.32902186 82.6649356 0.3391134 84.33103292 1 86 C-6.16488648 82.91816018 -9.73457144 76.08401923 -12.58056641 69.15307617 C-18.50288973 54.03422556 -20.21683029 35.02574598 -14.20703125 19.5234375 C-10.61125277 12.00604949 -7.08388989 4.80692528 0 0 Z " fill="#326591" transform="translate(171,54)"/>
<path d="M0 0 C0.66 0 1.32 0 2 0 C4.21493844 8.0109775 4.27605528 15.69693457 4.23046875 23.96484375 C4.22927349 25.4077602 4.22882452 26.85067744 4.2290802 28.29359436 C4.22752413 31.3050734 4.21930381 34.31643209 4.20581055 37.32788086 C4.18883765 41.16162062 4.18499644 44.99522848 4.18575573 48.82900143 C4.18548197 51.80523404 4.17996772 54.78143861 4.17275429 57.75766182 C4.16960274 59.17005769 4.16760857 60.58245669 4.16686058 61.99485588 C4.15828433 69.72357924 3.98558416 77.32849669 3 85 C1.515 85.495 1.515 85.495 0 86 C-2.18710275 77.57653665 -2.29398809 69.34063469 -2.265625 60.68359375 C-2.26697579 59.21728959 -2.26891976 57.75098587 -2.27142334 56.28468323 C-2.2743542 53.22791229 -2.27014255 50.17125909 -2.26074219 47.11450195 C-2.24933866 43.21897497 -2.25592573 39.3237234 -2.26788712 35.42820644 C-2.27515246 32.40568508 -2.27279663 29.38322783 -2.26763153 26.36070442 C-2.26630845 24.92515085 -2.26789504 23.48959123 -2.27259064 22.05404472 C-2.29215817 14.39422047 -2.04964624 7.40121761 0 0 Z " fill="#296191" transform="translate(174,54)"/>
<path d="M0 0 C3.54959483 3.54959483 3.12563017 8.06391028 3.12939453 12.86914062 C3.13254669 14.0280481 3.13569885 15.18695557 3.13894653 16.38098145 C3.1369223 17.62682007 3.13489807 18.87265869 3.1328125 20.15625 C3.13376923 21.4501062 3.13472595 22.7439624 3.13571167 24.07702637 C3.13718414 26.81731358 3.13505136 29.55756815 3.13037109 32.29785156 C3.12471932 35.77268376 3.12792651 39.24743792 3.13394356 42.72226715 C3.1384801 46.07526724 3.13527726 49.42824771 3.1328125 52.78125 C3.13483673 54.01089478 3.13686096 55.24053955 3.13894653 56.50744629 C3.11798631 64.38125775 2.71617714 72.15890672 2 80 C0.68 80 -0.64 80 -2 80 C-3.05588539 76.83234384 -3.12684422 74.59278169 -3.12939453 71.26611328 C-3.13254669 70.087034 -3.13569885 68.90795471 -3.13894653 67.69314575 C-3.1369223 66.41511078 -3.13489807 65.13707581 -3.1328125 63.8203125 C-3.13376923 62.50143036 -3.13472595 61.18254822 -3.13571167 59.82369995 C-3.13718733 57.02438186 -3.1350417 54.22509564 -3.13037109 51.42578125 C-3.12472912 47.87466389 -3.12791805 44.32362305 -3.13394356 40.77250862 C-3.1376003 38.01489716 -3.1363865 35.25730306 -3.13381577 32.49969101 C-3.13284142 30.56523336 -3.13583331 28.63077497 -3.13894653 26.69631958 C-3.08146999 4.62220498 -3.08146999 4.62220498 0 0 Z " fill="#2D618F" transform="translate(422,59)"/>
<path d="M0 0 C2.375 -0.1875 2.375 -0.1875 5 0 C7 3 7 3 6.75 5.125 C6 7 6 7 4 8 C3.53045739 11.04581269 3.53045739 11.04581269 3.375 14.5625 C3.30023438 15.76003906 3.22546875 16.95757812 3.1484375 18.19140625 C3.09945313 19.11824219 3.05046875 20.04507813 3 21 C2.67 21 2.34 21 2 21 C2.01047363 20.43490723 2.02094727 19.86981445 2.03173828 19.28759766 C2.07324788 16.73344347 2.0993096 14.17936018 2.125 11.625 C2.14175781 10.73554687 2.15851563 9.84609375 2.17578125 8.9296875 C2.18222656 8.07890625 2.18867188 7.228125 2.1953125 6.3515625 C2.20578613 5.56604004 2.21625977 4.78051758 2.22705078 3.97119141 C2.17990127 1.765535 2.17990127 1.765535 0 0 Z " fill="#628AAB" transform="translate(417,54)"/>
<path d="M0 0 C-0.51949219 0.38671875 -1.03898437 0.7734375 -1.57421875 1.171875 C-5.4342631 4.05442199 -9.26026958 6.96146903 -13 10 C-12.36506614 7.0369753 -11.76298522 4.48420645 -10 2 C-3.8028169 -1.26760563 -3.8028169 -1.26760563 0 0 Z " fill="#3D6E98" transform="translate(414,56)"/>
<path d="M0 0 C0.55171875 0.22558594 1.1034375 0.45117188 1.671875 0.68359375 C0.40796012 1.69232391 -0.86453383 2.69031197 -2.140625 3.68359375 C-3.20216797 4.51890625 -3.20216797 4.51890625 -4.28515625 5.37109375 C-6.328125 6.68359375 -6.328125 6.68359375 -9.328125 6.68359375 C-10.318125 6.35359375 -11.308125 6.02359375 -12.328125 5.68359375 C-10.75465324 4.64762475 -9.16890954 3.63027643 -7.578125 2.62109375 C-6.69640625 2.05261719 -5.8146875 1.48414063 -4.90625 0.8984375 C-2.328125 -0.31640625 -2.328125 -0.31640625 0 0 Z " fill="#3D6F99" transform="translate(165.328125,55.31640625)"/>
<path d="M0 0 C4.56454251 0.54339792 7.9728176 1.79463821 12 4 C11.67 5.32 11.34 6.64 11 8 C9.16399255 6.85845641 7.33125195 5.71165684 5.5 4.5625 C4.4790625 3.92441406 3.458125 3.28632812 2.40625 2.62890625 C1.6121875 2.09136719 0.818125 1.55382813 0 1 C0 0.67 0 0.34 0 0 Z " fill="#3D759F" transform="translate(429,55)"/>
<path d="M0 0 C0.66 1.32 1.32 2.64 2 4 C0.5682384 4.69937202 -0.87067032 5.38412718 -2.3125 6.0625 C-3.51326172 6.63677734 -3.51326172 6.63677734 -4.73828125 7.22265625 C-7 8 -7 8 -10 7 C-9.36191406 6.57847656 -8.72382813 6.15695313 -8.06640625 5.72265625 C-7.24011719 5.17480469 -6.41382813 4.62695312 -5.5625 4.0625 C-4.73878906 3.51722656 -3.91507813 2.97195312 -3.06640625 2.41015625 C-1.10014075 1.16197019 -1.10014075 1.16197019 0 0 Z " fill="#3B709D" transform="translate(192,132)"/>
<path d="M0 0 C1.98 0 3.96 0 6 0 C5.67 0.66 5.34 1.32 5 2 C3.68 1.67 2.36 1.34 1 1 C1.66 2.65 2.32 4.3 3 6 C2.34 6 1.68 6 1 6 C0.67 6.99 0.34 7.98 0 9 C0 6.03 0 3.06 0 0 Z " fill="#BCCBD7" transform="translate(177,54)"/>
<path d="M0 0 C1.32 0.33 2.64 0.66 4 1 C3.67 1.66 3.34 2.32 3 3 C2.34 3 1.68 3 1 3 C0.34 4.32 -0.32 5.64 -1 7 C-1.99 6.01 -2.98 5.02 -4 4 C-3.34 3.525625 -2.68 3.05125 -2 2.5625 C-1.34 2.046875 -0.68 1.53125 0 1 C0 0.67 0 0.34 0 0 Z " fill="#BCC9D4" transform="translate(413,54)"/>
<path d="M0 0 C1.32 0.33 2.64 0.66 4 1 C2.35 2.98 0.7 4.96 -1 7 C-1.99 6.01 -2.98 5.02 -4 4 C-3.34 3.525625 -2.68 3.05125 -2 2.5625 C-1.34 2.046875 -0.68 1.53125 0 1 C0 0.67 0 0.34 0 0 Z " fill="#BBCAD7" transform="translate(166,54)"/>
<path d="M0 0 C2.02054804 1.64169528 4.02043058 3.30911778 6 5 C6 5.33 6 5.66 6 6 C4.02 6 2.04 6 0 6 C0.33 5.34 0.66 4.68 1 4 C0.34 3.34 -0.32 2.68 -1 2 C-0.67 1.34 -0.34 0.68 0 0 Z " fill="#ABBECE" transform="translate(411,134)"/>
<path d="M0 0 C3.26954202 0.56371414 4.82575883 1.49962266 7 4 C4.69 3.67 2.38 3.34 0 3 C0 2.01 0 1.02 0 0 Z " fill="#3A7099" transform="translate(406,135)"/>
</svg>
